<svg width="48" height="48" viewBox="0 0 92 92" fill="none" xmlns="http://www.w3.org/2000/svg">
<path d="M42.0041 39.4162C50.8483 39.4162 58.0179 32.2466 58.0179 23.4024C58.0179 14.5583 50.8483 7.38867 42.0041 7.38867C33.16 7.38867 25.9904 14.5583 25.9904 23.4024C25.9904 32.2466 33.16 39.4162 42.0041 39.4162Z" stroke="#055CAC" stroke-width="6.27273"/>
<path d="M59.3971 51.3044C55.5303 48.5013 47.4084 46.6326 42.0034 46.6326C37.7453 46.6326 33.5289 47.4715 29.5952 49.1014C25.6614 50.7314 22.0873 53.1204 19.077 56.132C16.0667 59.1436 13.6793 62.7187 12.0511 66.6532C10.4229 70.5877 9.58588 74.8045 9.58777 79.0626H52.569" stroke="#055CAC" stroke-width="6.27273"/>
<path d="M65.2342 84.6112C74.7135 84.6112 82.3979 76.9267 82.3979 67.4474C82.3979 57.9682 74.7135 50.2837 65.2342 50.2837C55.7549 50.2837 48.0704 57.9682 48.0704 67.4474C48.0704 76.9267 55.7549 84.6112 65.2342 84.6112Z" stroke="#055CAC" stroke-width="6.27273"/>
<path d="M66.0964 57.2124V77.3374" stroke="#055CAC" stroke-width="6.27273"/>
<path d="M56.0339 67.2749H76.1589" stroke="#055CAC" stroke-width="6.27273"/>
</svg>
