<svg width="64" height="64" viewBox="0 0 64 64" fill="none" xmlns="http://www.w3.org/2000/svg">
<path d="M51.61 25.21L33.2 11.4C32.8538 11.1404 32.4328 11 32 11C31.5673 11 31.1462 11.1404 30.8 11.4L12.39 25.21C12.1416 25.3963 11.94 25.6379 11.8012 25.9156C11.6623 26.1933 11.59 26.4995 11.59 26.81V53.45C11.59 53.9804 11.8007 54.4891 12.1758 54.8642C12.5509 55.2393 13.0596 55.45 13.59 55.45H25C25.5305 55.45 26.0392 55.2393 26.4142 54.8642C26.7893 54.4891 27 53.9804 27 53.45V45C27 44.4696 27.2107 43.9609 27.5858 43.5858C27.9609 43.2107 28.4696 43 29 43H36C36.5305 43 37.0392 43.2107 37.4142 43.5858C37.7893 43.9609 38 44.4696 38 45V53.45C38 53.9804 38.2107 54.4891 38.5858 54.8642C38.9609 55.2393 39.4696 55.45 40 55.45H50.41C50.9405 55.45 51.4492 55.2393 51.8242 54.8642C52.1993 54.4891 52.41 53.9804 52.41 53.45V26.81C52.41 26.4995 52.3377 26.1933 52.1989 25.9156C52.06 25.6379 51.8584 25.3963 51.61 25.21Z" stroke="white" stroke-width="3"/>
</svg>
