<svg width="50" height="12" viewBox="0 0 50 12" fill="none" xmlns="http://www.w3.org/2000/svg">
<g clip-path="url(#clip0_28_108)">
<path d="M6.85999 10.5C9.34527 10.5 11.36 8.48528 11.36 6C11.36 3.51472 9.34527 1.5 6.85999 1.5C4.3747 1.5 2.35999 3.51472 2.35999 6C2.35999 8.48528 4.3747 10.5 6.85999 10.5Z" stroke="#F2F3F4" stroke-width="3"/>
<path d="M25 10.5C27.4853 10.5 29.5 8.48528 29.5 6C29.5 3.51472 27.4853 1.5 25 1.5C22.5147 1.5 20.5 3.51472 20.5 6C20.5 8.48528 22.5147 10.5 25 10.5Z" stroke="#F2F3F4" stroke-width="3"/>
<path d="M43.14 10.5C45.6253 10.5 47.64 8.48528 47.64 6C47.64 3.51472 45.6253 1.5 43.14 1.5C40.6547 1.5 38.64 3.51472 38.64 6C38.64 8.48528 40.6547 10.5 43.14 10.5Z" stroke="#F2F3F4" stroke-width="3"/>
</g>
<defs>
<clipPath id="clip0_28_108">
<rect width="50" height="12" fill="white"/>
</clipPath>
</defs>
</svg>
