<svg width="41" height="42" viewBox="0 0 41 42" fill="none" xmlns="http://www.w3.org/2000/svg">
<path d="M7.6875 33.6585V30.417C7.6875 30.417 10.9227 30.2568 10.9227 27.1754V16.9254C10.9227 16.9254 10.8906 8.42432 20.0708 8.42432C28.1875 8.42432 30.1094 13.1521 30.1094 16.6179V27.752C30.1094 27.752 29.8723 30.4426 33.3125 30.4426V33.6457L7.6875 33.6585Z" stroke="#F2F3F4" stroke-width="3"/>
<path d="M23.0049 8.6682V7.78414C23.0049 7.11981 22.741 6.4827 22.2712 6.01295C21.8015 5.5432 21.1643 5.2793 20.5 5.2793C19.8357 5.2793 19.1986 5.5432 18.7288 6.01295C18.2591 6.4827 17.9952 7.11981 17.9952 7.78414V8.59133" stroke="#F2F3F4" stroke-width="3"/>
<path d="M23.0625 33.6587C23.0625 34.4708 22.7399 35.2497 22.1656 35.824C21.5913 36.3983 20.8124 36.7209 20.0003 36.7209C19.1882 36.7209 18.4093 36.3983 17.835 35.824C17.2607 35.2497 16.9381 34.4708 16.9381 33.6587" stroke="#F2F3F4" stroke-width="3"/>
</svg>
