<svg height="48" viewBox="0 0 52 52" fill="none" xmlns="http://www.w3.org/2000/svg">
<path d="M25.9107 22.9775C28.4101 22.9775 30.4363 20.9513 30.4363 18.4519C30.4363 15.9525 28.4101 13.9263 25.9107 13.9263C23.4113 13.9263 21.3851 15.9525 21.3851 18.4519C21.3851 20.9513 23.4113 22.9775 25.9107 22.9775Z" stroke="#F2F3F4" stroke-width="2.4375"/>
<path d="M35.0676 35.5387C35.0654 33.1108 34.1 30.783 32.3832 29.0662C30.6665 27.3494 28.3386 26.384 25.9107 26.3818C23.4822 26.3818 21.1531 27.3466 19.4358 29.0638C17.7186 30.7811 16.7538 33.1102 16.7538 35.5387H35.0676Z" stroke="#F2F3F4" stroke-width="2.4375"/>
<path d="M39.3736 22.9775C41.8731 22.9775 43.8993 20.9513 43.8993 18.4519C43.8993 15.9525 41.8731 13.9263 39.3736 13.9263C36.8742 13.9263 34.848 15.9525 34.848 18.4519C34.848 20.9513 36.8742 22.9775 39.3736 22.9775Z" stroke="#F2F3F4" stroke-width="2.4375"/>
<path d="M38.0818 35.5387H48.5306C48.5306 33.1102 47.5658 30.7811 45.8486 29.0638C44.1313 27.3466 41.8022 26.3818 39.3737 26.3818C37.8747 26.3812 36.3985 26.7495 35.0756 27.4543" stroke="#F2F3F4" stroke-width="2.4375"/>
<path d="M12.6262 22.9775C15.1256 22.9775 17.1518 20.9513 17.1518 18.4519C17.1518 15.9525 15.1256 13.9263 12.6262 13.9263C10.1268 13.9263 8.10059 15.9525 8.10059 18.4519C8.10059 20.9513 10.1268 22.9775 12.6262 22.9775Z" stroke="#F2F3F4" stroke-width="2.4375"/>
<path d="M13.9181 35.5387H3.46936C3.46936 33.1102 4.4341 30.7811 6.15135 29.0638C7.86859 27.3466 10.1977 26.3818 12.6262 26.3818C14.1253 26.3812 15.6014 26.7495 16.9244 27.4543" stroke="#F2F3F4" stroke-width="2.4375"/>
</svg>
