<svg width="714" height="562" viewBox="0 0 714 562" fill="none" xmlns="http://www.w3.org/2000/svg">
<g clip-path="url(#clip0_66_344)">
<path d="M460.285 144.564L402.569 148.286C402.569 148.286 402.567 148.286 402.565 148.287L400.132 148.442C398.407 148.553 396.808 149.38 395.717 150.719L384.416 164.623C359.308 156.029 318.545 142.764 291.459 137.44C290.496 137.25 289.516 137.092 288.531 136.948C288.343 136.921 288.153 136.893 287.964 136.866C287.013 136.737 286.052 136.627 285.083 136.538C284.892 136.521 284.699 136.507 284.509 136.491C283.558 136.412 282.602 136.348 281.638 136.304C281.566 136.302 281.495 136.296 281.424 136.293C280.419 136.251 279.406 136.236 278.387 136.233C278.164 136.232 277.939 136.231 277.716 136.232C276.723 136.236 275.729 136.256 274.725 136.296C274.516 136.303 274.305 136.315 274.095 136.325C273.163 136.367 272.226 136.421 271.285 136.492C271.14 136.503 270.994 136.51 270.85 136.521C269.835 136.602 268.816 136.702 267.794 136.812C267.533 136.839 267.27 136.868 267.006 136.899C266.004 137.014 264.998 137.141 263.99 137.284C263.764 137.316 263.538 137.352 263.311 137.384C262.41 137.518 261.506 137.661 260.603 137.813C260.393 137.849 260.184 137.882 259.974 137.92C258.97 138.095 257.966 138.284 256.962 138.483C256.67 138.541 256.378 138.6 256.087 138.659C255.454 138.789 254.822 138.922 254.187 139.06C254.145 139.071 254.102 139.08 254.059 139.088C253.74 139.159 253.419 139.227 253.1 139.3C252.871 139.351 252.644 139.406 252.416 139.457C252.371 139.469 252.326 139.479 252.279 139.49C251.497 139.671 250.715 139.859 249.934 140.052C249.884 140.065 249.833 140.077 249.781 140.089C249.537 140.151 249.292 140.209 249.05 140.272C248.564 140.394 248.081 140.522 247.597 140.649L247.521 140.668C247.465 140.683 247.409 140.699 247.351 140.714C247.348 140.715 247.344 140.716 247.339 140.716C246.922 140.827 246.505 140.939 246.09 141.053C245.801 141.132 245.513 141.211 245.224 141.291C244.235 141.567 243.245 141.85 242.263 142.141C242.071 142.199 241.881 142.258 241.688 142.316C241.491 142.375 241.294 142.435 241.096 142.495C241.08 142.501 241.062 142.506 241.044 142.511C240.377 142.714 239.713 142.92 239.051 143.132C238.807 143.208 238.564 143.283 238.322 143.361C237.348 143.674 236.376 143.995 235.411 144.32C235.163 144.405 234.913 144.49 234.664 144.577C233.998 144.805 233.335 145.035 232.676 145.269C232.65 145.278 232.626 145.287 232.6 145.295C232.301 145.402 231.999 145.507 231.702 145.613C231.617 145.643 231.534 145.675 231.449 145.704C230.492 146.05 229.544 146.403 228.6 146.758C228.418 146.827 228.237 146.894 228.057 146.964C227.076 147.336 226.104 147.713 225.143 148.094C224.987 148.157 224.83 148.219 224.674 148.281C223.968 148.563 223.269 148.846 222.574 149.132C222.557 149.139 222.542 149.145 222.527 149.15C221.235 149.683 219.962 150.219 218.713 150.759C218.632 150.795 218.55 150.83 218.469 150.866C217.943 151.094 217.423 151.323 216.906 151.551C216.878 151.564 216.848 151.576 216.82 151.589C216.387 151.78 215.956 151.974 215.529 152.166C215.515 152.172 215.504 152.177 215.491 152.183C214.152 152.788 212.843 153.394 211.567 154L211.436 154.062C209.764 154.858 208.153 155.65 206.605 156.434C206.548 156.464 206.489 156.493 206.43 156.523C204.913 157.295 203.461 158.056 202.082 158.803C202.003 158.846 201.922 158.888 201.844 158.931C200.496 159.664 199.221 160.378 198.022 161.073C197.933 161.125 197.842 161.177 197.753 161.229C196.584 161.908 195.492 162.566 194.483 163.197C194.387 163.256 194.293 163.315 194.201 163.373C193.22 163.989 192.321 164.577 191.508 165.133C191.418 165.194 191.33 165.254 191.243 165.314C190.848 165.587 190.467 165.854 190.115 166.11C190.115 166.11 190.115 166.111 190.114 166.111C189.768 166.363 189.451 166.603 189.148 166.837C189.075 166.893 189.004 166.95 188.933 167.005C188.641 167.235 188.363 167.459 188.116 167.669C188.114 167.671 188.112 167.673 188.11 167.675C187.868 167.883 187.657 168.076 187.46 168.263C187.41 168.309 187.363 168.355 187.316 168.401C187.131 168.584 186.959 168.76 186.823 168.92C186.821 168.922 186.821 168.923 186.818 168.925C186.684 169.084 186.583 169.226 186.498 169.36C186.477 169.395 186.457 169.428 186.439 169.46C186.365 169.59 186.308 169.712 186.288 169.817C186.268 169.919 186.273 170.05 186.291 170.195C186.295 170.232 186.302 170.271 186.309 170.311C186.333 170.453 186.371 170.609 186.425 170.785C186.431 170.801 186.433 170.815 186.438 170.833C186.503 171.028 186.59 171.249 186.69 171.484C186.713 171.538 186.738 171.594 186.763 171.651C186.862 171.873 186.972 172.108 187.101 172.36C187.115 172.387 187.125 172.412 187.139 172.439C187.288 172.729 187.457 173.04 187.641 173.367C187.668 173.414 187.696 173.463 187.724 173.512C187.91 173.835 188.108 174.172 188.326 174.528C188.333 174.539 188.338 174.548 188.344 174.558C190.485 178.048 194.202 183.072 199.102 188.815C199.138 188.858 199.174 188.9 199.21 188.943C199.506 189.29 199.808 189.64 200.113 189.991C200.208 190.102 200.302 190.211 200.398 190.322C200.657 190.619 200.92 190.918 201.183 191.218C201.332 191.386 201.478 191.553 201.628 191.723C201.85 191.973 202.077 192.226 202.302 192.478C202.502 192.701 202.7 192.924 202.903 193.148C203.092 193.358 203.284 193.568 203.474 193.779C203.719 194.047 203.963 194.316 204.212 194.586C204.374 194.764 204.54 194.943 204.705 195.122C204.987 195.426 205.269 195.73 205.554 196.036C205.696 196.188 205.841 196.341 205.984 196.494C206.299 196.829 206.616 197.165 206.936 197.502C207.057 197.629 207.179 197.756 207.302 197.884C207.649 198.248 208 198.612 208.353 198.978C208.456 199.084 208.561 199.19 208.663 199.296C209.04 199.683 209.419 200.071 209.803 200.46C209.891 200.55 209.98 200.639 210.069 200.729C210.47 201.134 210.874 201.539 211.282 201.945C211.36 202.022 211.437 202.1 211.516 202.177C211.939 202.596 212.363 203.014 212.792 203.433C212.861 203.501 212.93 203.568 212.999 203.635C213.439 204.064 213.883 204.492 214.331 204.921C214.393 204.981 214.457 205.041 214.52 205.101C214.977 205.538 215.437 205.975 215.902 206.411C215.957 206.463 216.012 206.514 216.067 206.566C216.54 207.009 217.016 207.451 217.497 207.894C217.549 207.942 217.602 207.99 217.654 208.038C218.137 208.481 218.622 208.923 219.111 209.364C219.167 209.414 219.221 209.463 219.276 209.512C219.766 209.953 220.26 210.393 220.757 210.832C220.812 210.88 220.866 210.927 220.92 210.975C221.419 211.414 221.921 211.852 222.428 212.29C222.482 212.337 222.536 212.384 222.59 212.431C223.097 212.867 223.607 213.301 224.119 213.734C224.175 213.781 224.231 213.829 224.287 213.876C224.8 214.308 225.316 214.737 225.834 215.164C225.894 215.213 225.951 215.26 226.009 215.308C226.523 215.731 227.039 216.151 227.56 216.569C227.626 216.623 227.693 216.677 227.761 216.731C228.274 217.143 228.79 217.551 229.307 217.958C229.381 218.016 229.457 218.075 229.532 218.134C230.042 218.533 230.556 218.929 231.071 219.323C231.154 219.387 231.238 219.451 231.323 219.516C231.832 219.903 232.345 220.289 232.859 220.671C232.949 220.738 233.039 220.804 233.128 220.871C233.636 221.247 234.148 221.62 234.661 221.991C234.758 222.061 234.856 222.132 234.954 222.202C235.459 222.565 235.965 222.925 236.475 223.281C236.581 223.356 236.688 223.432 236.795 223.506C237.299 223.857 237.806 224.205 238.313 224.549C238.426 224.625 238.536 224.701 238.648 224.776C239.148 225.114 239.651 225.447 240.154 225.778C240.277 225.858 240.399 225.939 240.52 226.019C241.013 226.34 241.507 226.656 242.003 226.97C242.138 227.055 242.272 227.141 242.406 227.226C242.894 227.532 243.382 227.833 243.871 228.131C244.013 228.218 244.156 228.307 244.298 228.393C244.78 228.684 245.263 228.97 245.746 229.253C245.898 229.343 246.051 229.433 246.203 229.522C246.679 229.798 247.155 230.067 247.631 230.335C247.793 230.426 247.955 230.519 248.118 230.609C248.585 230.869 249.054 231.122 249.523 231.374C249.695 231.466 249.867 231.561 250.039 231.653C250.498 231.895 250.958 232.132 251.416 232.366C251.602 232.461 251.786 232.557 251.97 232.65C252.42 232.877 252.871 233.096 253.322 233.315C253.515 233.409 253.709 233.506 253.903 233.598C254.344 233.809 254.785 234.011 255.228 234.213C255.432 234.307 255.638 234.405 255.843 234.497C256.274 234.69 256.706 234.876 257.136 235.061C257.353 235.154 257.569 235.251 257.787 235.342C258.208 235.52 258.63 235.688 259.053 235.858C259.279 235.949 259.504 236.043 259.731 236.132C260.148 236.295 260.567 236.45 260.986 236.606C261.215 236.691 261.445 236.781 261.674 236.863C262.087 237.013 262.501 237.153 262.914 237.294C263.149 237.374 263.385 237.46 263.62 237.537C264.033 237.674 264.444 237.799 264.857 237.927C265.091 238 265.328 238.078 265.563 238.149C265.977 238.272 266.39 238.385 266.805 238.5C267.04 238.565 267.273 238.635 267.506 238.697C267.953 238.816 268.399 238.923 268.845 239.031C269.045 239.079 269.244 239.133 269.442 239.179C270.087 239.329 270.733 239.467 271.378 239.594C298.374 244.901 340.926 248.094 367.431 249.68L372.789 267.355C373.291 269.009 374.459 270.378 376.013 271.134L378.206 272.2C378.208 272.201 378.21 272.202 378.209 272.202L430.222 297.494C432.898 298.795 436.082 297.21 436.655 294.291C436.961 292.734 436.434 291.133 435.262 290.064L405.396 262.834L407.635 251.446L411.51 251.57L412.999 243.996L433.217 244.323L434.724 236.655C447.278 237.566 459.693 240.351 471.443 244.861C475.352 246.361 479.112 248.091 482.807 249.964C481.841 251.466 481.121 253.154 480.588 254.737C479.444 258.133 479.336 261.804 480.792 265.115C483.634 271.578 490.437 275.832 497.536 274.536C498.657 274.331 499.841 273.968 500.972 273.455C499.101 275.63 497.895 278.463 498.665 281.165C499.586 284.389 504.4 286.147 506.461 283.503C504.441 285.74 502.985 288.694 503.3 291.691C503.617 294.689 506.134 297.533 509.148 297.498C511.371 297.47 513.367 295.945 514.531 294.05C515.696 292.155 516.174 289.926 516.573 287.737C517.873 280.603 531.556 216.914 533.53 201.479C534.06 197.322 534.988 193.154 533.919 189.102C532.847 185.051 530.102 181.221 526.126 179.9C521.974 178.519 516.986 180.371 514.738 184.121C512.663 187.585 513.122 192.339 515.7 195.418C513.634 193.657 509.936 193.984 508.431 196.329C507.328 198.05 507.708 200.391 508.96 201.971C508.266 201.613 507.489 201.446 506.698 201.365C504.474 201.137 502.266 201.621 500.286 202.638C499.274 203.157 498.384 203.819 497.792 204.81C497.531 205.247 497.349 205.722 497.216 206.213C496.505 206.353 495.802 206.519 495.116 206.672C484.364 209.072 473.114 207.12 462.509 204.135C455.744 202.232 449.081 199.911 442.323 197.999L443.045 194.325L424.209 186.974L425.698 179.399L422.06 178.067L424.187 167.248L462.137 153.349C463.626 152.804 464.722 151.519 465.027 149.964C465.601 147.045 463.255 144.372 460.285 144.564Z" fill="#4397C8"/>
<path d="M495.116 206.673C484.364 209.072 473.114 207.12 462.509 204.136C455.744 202.233 449.08 199.913 442.323 198.001L434.724 236.655C447.278 237.567 459.693 240.351 471.443 244.862C475.663 246.481 479.714 248.368 483.693 250.416C484.457 249.185 485.37 248.079 486.25 246.92C486.286 246.894 486.317 246.863 486.354 246.836C486.392 246.807 486.428 246.772 486.468 246.744C486.746 246.812 487.028 246.874 487.313 246.918C488.584 247.112 489.743 246.963 491.002 246.764C491.178 246.736 491.221 246.463 491.021 246.432C489.918 246.265 488.809 246.108 487.709 245.931C487.715 245.927 487.721 245.923 487.727 245.919C487.767 245.896 487.805 245.87 487.846 245.847C487.769 245.855 487.695 245.879 487.619 245.884C487.57 245.887 487.521 245.883 487.471 245.885C486.363 245.686 485.303 245.306 484.413 244.599C482.857 243.363 481.69 241.431 481.507 239.435C481.316 237.35 482.285 235.512 484.049 234.418C484.901 233.888 485.885 233.513 486.862 233.285C487.418 233.155 487.953 233.058 488.485 232.844C489.066 232.61 489.542 232.487 490.183 232.508C490.324 232.513 490.353 232.3 490.235 232.244C489.4 231.848 488.409 231.358 487.465 231.383C486.93 231.398 486.371 231.548 485.829 231.743C483.194 230.21 480.967 228.151 480.051 225.092C479.035 221.697 480.243 218.169 482.644 215.673C485.261 212.953 488.777 211.844 492.488 211.869C494.556 211.884 496.597 212.332 498.551 212.989C500.566 213.665 502.733 214.142 504.664 215.011C504.806 215.075 504.945 214.886 504.821 214.781C503.331 213.518 502.031 212.341 500.251 211.478C500.074 211.393 499.884 211.327 499.7 211.249C499.281 210.23 499.046 209.174 499.021 208.026C499.005 207.31 499.16 206.548 499.507 205.909C498.052 205.978 496.539 206.355 495.116 206.673Z" fill="#99DEF9"/>
<path d="M514.738 184.122C512.663 187.585 513.122 192.34 515.7 195.418C513.634 193.657 509.936 193.984 508.431 196.329C507.328 198.05 507.708 200.391 508.96 201.971C508.266 201.613 507.489 201.447 506.698 201.365C504.474 201.137 502.266 201.622 500.286 202.638C499.274 203.157 498.383 203.82 497.792 204.811C497.224 205.763 496.986 206.886 496.967 207.986C496.952 208.848 497.173 209.726 497.562 210.52C496.682 210.294 495.783 210.132 494.906 210.018C491.363 209.566 488.02 210.167 484.891 211.883C484.539 212.078 484.196 212.287 483.862 212.51C482.993 213.088 482.203 213.763 481.498 214.503C478.751 217.388 477.389 221.345 478.49 225.245C478.679 225.919 478.932 226.592 479.276 227.256C479.319 227.342 479.373 227.426 479.421 227.512C480.55 229.568 482.414 231.455 484.661 232.227L484.597 232.257C484.074 232.498 483.577 232.782 483.114 233.104C482.592 233.465 482.114 233.879 481.707 234.357C481.28 234.861 480.926 235.432 480.679 236.086C480.418 236.775 480.277 237.486 480.236 238.2C480.191 238.989 480.276 239.78 480.466 240.549C480.807 241.931 481.502 243.233 482.457 244.304C482.961 244.868 483.533 245.372 484.168 245.783C484.743 246.157 485.376 246.424 486.032 246.621C485.989 246.647 485.953 246.681 485.912 246.708C483.195 248.471 481.58 251.794 480.588 254.737C479.443 258.133 479.336 261.805 480.791 265.115C483.634 271.578 490.437 275.832 497.536 274.536C498.657 274.331 499.841 273.968 500.972 273.455C499.101 275.63 497.895 278.464 498.665 281.166C499.586 284.39 504.4 286.147 506.461 283.504C504.441 285.74 502.985 288.694 503.3 291.691C503.617 294.689 506.134 297.534 509.148 297.498C511.371 297.471 513.367 295.945 514.531 294.05C515.696 292.155 516.174 289.926 516.573 287.738C517.873 280.604 531.556 216.914 533.53 201.479C534.06 197.323 534.988 193.155 533.919 189.103C532.847 185.052 530.102 181.221 526.126 179.9C521.974 178.519 516.986 180.371 514.738 184.122Z" fill="#D4F1FC"/>
<path d="M486.012 234.71C484.888 235.066 483.821 235.717 483.177 236.706C482.176 238.244 482.412 240.386 483.476 241.883C485.135 244.216 490.925 245.473 488.023 241.452C487.676 240.972 487.337 240.428 487.378 239.838C487.431 239.025 488.193 238.43 488.965 238.171C489.735 237.911 490.572 237.874 491.334 237.583C492.094 237.292 492.814 236.622 492.77 235.809C492.732 235.129 492.159 234.574 491.519 234.347C490.879 234.119 490.179 234.153 489.5 234.194C488.324 234.265 487.136 234.354 486.012 234.71Z" fill="#EBF8FE"/>
<path d="M488.301 213.974C486.287 214.66 484.323 215.9 483.012 217.6C482.304 218.521 481.771 219.515 481.445 220.632C481.099 221.821 481.334 223.239 481.759 224.386C482.283 225.797 484.614 225.422 484.42 223.833C484.252 222.453 485.323 220.861 486.366 220.069C487.611 219.123 488.883 218.716 490.293 218.591C492.203 218.423 493.691 218.513 495.555 218.853C496.568 219.036 497.566 219.292 498.576 219.49C499.707 219.712 500.783 220.041 501.823 219.519L501.841 219.515C502.987 219.327 503.869 218.037 503.081 216.964C502.651 216.38 502.364 215.644 501.582 215.217C501.067 214.939 500.467 214.754 499.915 214.555C498.628 214.092 497.295 213.801 495.945 213.587C493.367 213.178 490.798 213.123 488.301 213.974Z" fill="#EBF8FE"/>
<path d="M508.759 209.911L508.843 209.89C508.751 209.908 508.656 209.927 508.563 209.948L508.759 209.911Z" fill="#EBF8FE"/>
<path d="M503.814 205.534C502.843 205.838 501.754 206.475 501.355 207.458C501.147 207.969 501.009 208.54 501.081 209.096C501.125 209.443 501.244 209.741 501.477 210.007C501.614 210.164 501.791 210.245 501.936 210.382L501.959 210.404C502.073 210.485 502.19 210.566 502.317 210.627C502.828 210.872 503.402 210.634 503.644 210.155C503.782 210.034 503.906 209.895 504.009 209.734L504.039 209.707L504.109 209.662L504.236 209.586L504.497 209.498C504.766 209.464 505.036 209.446 505.306 209.451C505.753 209.493 506.201 209.553 506.64 209.631C506.894 209.678 507.145 209.736 507.394 209.807C507.517 209.843 507.639 209.895 507.762 209.924C508.174 210.02 508.538 209.949 508.925 209.868C509.567 209.721 510.108 209.422 510.422 208.794C510.739 208.157 510.705 207.344 510.29 206.757C510.049 206.413 509.784 206.124 509.434 205.889C509.067 205.641 508.629 205.521 508.203 205.401C507.814 205.292 507.413 205.21 507.011 205.17C505.943 205.065 504.834 205.215 503.814 205.534Z" fill="#EBF8FE"/>
<path d="M509.108 209.834L508.925 209.868L508.844 209.89L509.108 209.834Z" fill="#EBF8FE"/>
<path d="M511.385 196.036C510.695 196.273 509.946 196.702 509.497 197.294C509.284 197.57 509.069 197.869 508.946 198.198C508.731 198.777 508.653 199.124 508.643 199.742C508.638 200.079 508.706 200.44 508.834 200.75C509.027 201.218 509.282 201.624 509.669 201.961C510.055 202.296 510.6 202.484 511.11 202.445C511.58 202.41 512.13 202.162 512.432 201.788C512.755 201.388 512.979 200.873 512.916 200.347L512.866 200.098C513.125 200.079 513.387 200.072 513.649 200.077C513.943 200.066 514.215 199.984 514.461 199.833C514.727 199.728 514.954 199.561 515.139 199.335C515.346 199.118 515.485 198.866 515.555 198.581C515.676 198.304 515.72 198.014 515.687 197.707C515.62 197.15 515.394 196.58 514.945 196.217C514.487 195.847 513.917 195.613 513.318 195.669C512.668 195.732 512.003 195.824 511.385 196.036Z" fill="#EBF8FE"/>
<path d="M515.735 183.945C514.349 185.636 513.617 187.99 513.992 190.17C514.117 190.906 514.264 191.577 514.649 192.224C514.924 192.685 515.281 193.093 515.642 193.491C516.288 194.205 516.991 194.801 517.821 195.297C518.608 195.77 519.685 195.377 520.164 194.669C520.697 193.878 520.521 192.923 519.866 192.263C519.773 192.169 519.768 192.169 519.774 192.183L519.714 192.102C519.609 191.963 519.505 191.821 519.411 191.672L519.273 191.444C519.148 191.234 519.318 191.499 519.322 191.522L519.243 191.273L519.215 191.166C519.202 191.074 519.17 190.888 519.166 190.836L519.15 190.577C519.154 190.609 518.937 189.577 519.047 190.09C519.123 190.434 519.023 189.889 519.014 189.795C519.001 189.684 519.041 189.333 519 189.201L519.011 189.111C519.04 188.929 519.085 188.751 519.124 188.572L519.13 188.533C519.216 188.339 519.3 188.146 519.4 187.96C519.46 187.848 519.528 187.741 519.593 187.634L519.723 187.464C519.818 187.347 519.926 187.243 520.027 187.132L520.197 186.989C520.341 186.886 520.491 186.797 520.641 186.707L520.672 186.696C520.839 186.634 521.003 186.568 521.172 186.516L521.329 186.473C521.486 186.458 521.641 186.431 521.8 186.421C521.856 186.419 522.032 186.422 522.137 186.421L522.319 186.446C522.45 186.469 522.687 186.563 522.846 186.576L522.96 186.624C523.132 186.7 523.3 186.785 523.462 186.877L523.554 186.931C523.657 187.059 523.931 187.203 524.04 187.294C524.334 187.539 524.613 187.804 524.879 188.077C524.946 188.145 525.3 188.546 525.124 188.333L525.142 188.354C525.331 188.571 525.511 188.818 525.731 189.007C526.386 189.567 527.165 190.013 528.052 189.971C528.19 189.964 528.327 189.926 528.458 189.898C528.988 189.788 528.75 189.846 528.543 189.886L528.733 189.855C529.302 189.755 529.643 189.513 529.916 189.006C530.092 188.676 530.267 188.311 530.334 187.946C530.611 186.42 529.47 185.134 528.496 184.124C527.822 183.425 527.07 182.851 526.252 182.328C522.949 180.213 518.24 180.889 515.735 183.945Z" fill="#EBF8FE"/>
<path d="M518.15 220.402L516.099 220.402C515.779 220.403 515.529 220.709 515.51 221.006C515.49 221.331 515.709 221.599 516.024 221.675C516.473 221.784 516.922 221.891 517.371 222C517.597 222.055 517.822 222.107 518.046 222.162C518.149 222.187 518.252 222.216 518.359 222.23C518.541 222.256 518.736 222.251 518.922 222.257C519.123 222.265 519.402 222.109 519.525 221.956C519.654 221.798 519.728 221.622 519.739 221.418C519.767 220.979 519.467 220.575 519.028 220.487C518.905 220.463 518.783 220.432 518.66 220.418C518.491 220.397 518.32 220.403 518.15 220.402Z" fill="#EBF8FE"/>
<path d="M517.696 216.667C517.414 216.618 517.152 216.815 517.135 217.104C517.127 217.234 517.165 217.347 517.25 217.444C517.344 217.552 517.492 217.627 517.64 217.608C517.827 217.582 518.014 217.557 518.201 217.531C518.296 217.518 518.39 217.505 518.482 217.492L518.628 217.466L518.78 217.364L518.86 217.165L518.825 217.005C518.767 216.889 518.66 216.832 518.533 216.811C518.44 216.794 518.349 216.778 518.258 216.762L517.696 216.667Z" fill="#EBF8FE"/>
<path d="M501.485 244.3C501.117 244.261 500.751 244.2 500.382 244.156C499.936 244.104 499.497 244.003 499.07 243.861L499.136 243.883C498.815 243.77 498.469 243.699 498.135 243.832C497.853 243.943 497.629 244.114 497.459 244.367C497.11 244.883 497.124 245.755 497.679 246.153C498.532 246.767 499.494 247.321 500.554 247.446C501.094 247.509 501.647 247.538 502.189 247.503C502.504 247.483 502.854 247.455 503.153 247.358C503.652 247.196 503.998 246.842 504.2 246.37C504.441 245.807 504.331 245.223 503.893 244.798C503.648 244.559 503.365 244.343 503.013 244.29C502.746 244.25 502.494 244.268 502.23 244.29C501.982 244.311 501.734 244.307 501.485 244.3Z" fill="#EBF8FE"/>
<path d="M505.378 251.426C505.261 251.503 505.137 251.57 505.014 251.637C504.853 251.712 504.691 251.786 504.525 251.844C504.311 251.918 504.12 252.024 503.925 252.129C503.771 252.204 503.613 252.274 503.452 252.333C503.215 252.419 503.028 252.673 503.058 252.932C503.09 253.204 503.271 253.392 503.532 253.464C503.766 253.529 504.004 253.579 504.245 253.607L504.407 253.623C504.508 253.632 504.617 253.647 504.718 253.638L504.985 253.583C505.113 253.556 505.24 253.525 505.365 253.488C505.604 253.419 505.837 253.333 506.062 253.228C506.241 253.144 506.425 253.059 506.596 252.958C506.8 252.837 506.954 252.638 507.028 252.416C507.08 252.265 507.088 252.113 507.085 251.955C507.078 251.684 506.877 251.369 506.622 251.268L506.551 251.237C506.303 251.137 506.059 251.103 505.799 251.189C505.64 251.243 505.515 251.337 505.378 251.426Z" fill="#EBF8FE"/>
<path d="M507.507 237.774C507.377 237.762 507.249 237.75 507.122 237.724L506.876 237.664C506.773 237.638 506.667 237.63 506.559 237.628C506.304 237.605 506.051 237.566 505.807 237.488C505.714 237.483 505.617 237.477 505.522 237.471L505.254 237.527C505.035 237.603 504.858 237.752 504.729 237.942C504.49 238.294 504.484 238.765 504.72 239.123C504.949 239.468 505.231 239.79 505.543 240.062C505.869 240.345 506.197 240.441 506.598 240.572C506.764 240.626 506.934 240.669 507.107 240.7C507.37 240.751 507.626 240.732 507.88 240.646C508.123 240.559 508.331 240.42 508.503 240.227L508.515 240.21C508.687 240.014 508.8 239.787 508.851 239.531C508.901 239.273 508.882 239.022 508.797 238.774L508.791 238.76C508.734 238.647 508.679 238.534 508.622 238.422C508.518 238.254 508.383 238.123 508.214 238.029C508.113 237.941 507.997 237.884 507.866 237.858C507.792 237.825 507.715 237.807 507.639 237.792C507.639 237.792 507.641 237.792 507.642 237.792C507.641 237.792 507.639 237.791 507.637 237.791C507.595 237.783 507.551 237.778 507.507 237.774Z" fill="#EBF8FE"/>
<path d="M487.738 249.425C487.027 249.758 486.341 249.849 485.739 250.418C485.302 250.833 484.919 251.304 484.575 251.799C483.754 252.97 483.132 254.232 482.767 255.622C482.127 258.062 482.298 260.876 483.31 263.192C484.412 265.716 486.277 267.581 488.756 268.773C491.058 269.88 493.737 270.356 496.274 270.023C497.71 269.834 497.544 267.799 496.107 267.791C494.14 267.781 492.211 267.169 490.617 266.012C489.869 265.47 489.152 264.787 488.65 264.116C488.124 263.415 487.449 262.482 487.181 261.846C486.436 260.084 486.338 258.457 486.771 256.642C487.006 255.652 487.181 255.138 487.722 254.192C487.952 253.791 488.136 253.574 488.483 253.142C488.82 252.723 488.97 252.151 489.306 251.761C490.186 250.734 489.121 248.778 487.738 249.425Z" fill="#EBF8FE"/>
<path d="M501.349 275.481C501.046 275.8 500.855 276.248 500.69 276.653C500.529 277.044 500.386 277.449 500.284 277.861C500.08 278.682 500.106 279.526 500.328 280.338C500.523 281.047 500.963 281.707 501.493 282.209C501.753 282.455 502.067 282.673 502.398 282.818C502.935 283.055 503.353 283.109 503.933 283.135C504.352 283.155 504.942 282.822 505.197 282.507C505.466 282.173 505.621 281.807 505.645 281.377C505.67 280.982 505.59 280.552 505.347 280.222C505.075 279.852 504.635 279.459 504.154 279.428L504.054 279.411L504.014 279.348L503.975 279.238L503.961 279.023C503.985 278.864 504.019 278.707 504.062 278.551C504.264 278.073 504.541 277.616 504.648 277.11C504.814 276.324 504.382 275.371 503.63 275.037C502.835 274.684 501.953 274.847 501.349 275.481Z" fill="#EBF8FE"/>
<path d="M509.228 291.548C509.179 291.379 509.218 291.215 509.228 291.548V291.548Z" fill="#EBF8FE"/>
<path d="M508.234 284.929L508.028 284.998C507.486 285.17 507.032 285.532 506.684 286.055C506.281 286.519 506.548 286.257 506.649 286.101L506.673 286.07C506.607 286.149 506.555 286.24 506.496 286.323C506.267 286.65 506.019 286.967 505.846 287.33C505.595 287.866 505.395 288.432 505.227 288.998C504.908 290.068 504.942 291.243 505.295 292.299C505.608 293.231 506.197 294.167 507.001 294.745C507.496 295.101 507.989 295.352 508.597 295.444C509.042 295.513 509.503 295.534 509.95 295.468C510.373 295.406 510.732 295.169 510.868 294.748C510.99 294.374 510.916 293.865 510.575 293.612C510.443 293.514 510.331 293.403 510.215 293.293L510.109 293.171L509.949 292.917C509.843 292.734 509.726 292.565 509.614 292.386L509.511 292.203L509.372 291.942L509.336 291.862C509.296 291.762 509.261 291.661 509.229 291.557L509.228 291.548L509.229 291.644C509.231 291.541 509.196 291.43 509.187 291.327L509.177 291.109C509.196 290.984 509.231 290.862 509.259 290.741C509.416 290.38 509.605 290.038 509.821 289.707C509.988 289.464 510.149 289.218 510.274 288.948C510.407 288.668 510.534 288.387 510.654 288.101C510.901 287.505 510.904 286.918 510.716 286.376C510.681 286.251 510.637 286.133 510.586 286.018L510.585 286.015C510.402 285.607 510.12 285.262 509.678 285.042C509.245 284.825 508.808 284.805 508.381 284.898L508.234 284.929Z" fill="#EBF8FE"/>
<path d="M443.045 194.325L424.209 186.974L412.999 243.996L433.217 244.323L443.045 194.325Z" fill="#181418"/>
<path d="M402.569 148.286C402.569 148.286 402.567 148.286 402.565 148.287L460.285 144.565L402.569 148.286Z" fill="#1A3256"/>
<path d="M460.285 144.565L402.565 148.287L400.132 148.442C398.407 148.553 396.808 149.38 395.717 150.72L384.416 164.623C394.617 168.115 402.228 170.834 405.29 171.935C406.255 172.283 406.779 172.473 406.779 172.473L422.06 178.068L424.187 167.248L462.137 153.349C463.626 152.804 464.722 151.519 465.027 149.964C465.601 147.045 463.255 144.372 460.285 144.565Z" fill="#1E487A"/>
<path d="M378.209 272.202L430.222 297.494L378.206 272.2C378.208 272.201 378.21 272.202 378.209 272.202Z" fill="#1A3256"/>
<path d="M391.357 250.925C391.357 250.925 390.683 250.898 389.432 250.842C385.946 250.687 377.951 250.31 367.431 249.68L372.789 267.355C373.291 269.009 374.459 270.378 376.013 271.134L378.206 272.2L430.222 297.494C432.898 298.796 436.081 297.21 436.655 294.291C436.961 292.734 436.433 291.133 435.262 290.065L405.396 262.835L407.635 251.447L391.357 250.925Z" fill="#1E487A"/>
<path d="M389.432 250.842C390.683 250.897 391.357 250.925 391.357 250.925L406.779 172.473C406.779 172.473 406.255 172.282 405.29 171.935C402.228 170.833 394.617 168.115 384.416 164.623C359.307 156.029 318.545 142.764 291.459 137.44C249.901 129.27 187.272 164.809 186.288 169.817C185.304 174.824 229.82 231.425 271.378 239.594C298.374 244.901 340.926 248.094 367.431 249.68C377.951 250.31 385.946 250.687 389.432 250.842Z" fill="#4397C8"/>
<path d="M391.357 250.925L407.635 251.446L411.51 251.571L425.698 179.399L422.06 178.068L406.779 172.473L391.357 250.925Z" fill="#29242C"/>
<path d="M397.698 151.207C399.393 149.198 412.427 148.406 419.289 148.102C424.176 147.885 428.799 147.427 433.687 147.358C435.847 147.328 437.028 148.666 434.73 148.993C428.773 149.848 420.352 150.634 413.535 151.378C406.721 152.121 399.547 154.413 395.498 159.945C394.526 161.275 392.638 164.775 390.412 164.023C388.296 163.309 389.02 160.67 390.092 159.434C393.971 154.96 396.401 152.742 397.698 151.207Z" fill="#1C629E"/>
<path d="M374.807 267.655C375.615 270.155 387.38 275.822 393.616 278.701C398.057 280.752 402.163 282.925 406.661 284.839C408.649 285.685 410.248 284.895 408.245 283.721C403.054 280.676 395.558 276.761 389.53 273.492C383.504 270.224 377.731 265.387 376.078 258.734C375.682 257.136 375.26 253.18 372.915 253.034C370.685 252.895 370.357 255.612 370.881 257.161C372.777 262.771 374.188 265.742 374.807 267.655Z" fill="#1C629E"/>
<path d="M437.755 196.542L432.289 224.349L422.143 224.384L428.378 192.669L437.755 196.542Z" fill="#29242C"/>
<path d="M295.197 223.353C284.366 221.224 275.941 213.769 272.09 204.245C251.189 199.558 229.804 193.654 210.499 184.429C202.017 180.377 193.989 175.533 186.31 170.165C186.911 176.848 230.555 231.569 271.378 239.594C312.934 247.763 391.357 250.925 391.357 250.925L396.885 222.806C380.365 221.034 363.889 218.888 347.437 216.551C339.891 215.479 332.332 214.45 324.775 213.388C317.616 221.423 306.522 225.58 295.197 223.353Z" fill="#397AB1"/>
<path d="M192.049 164.775C228.069 154.962 264.622 155.513 300.978 160.998C303.074 160.981 305.203 161.173 307.338 161.592C308.772 161.874 310.16 162.257 311.504 162.719C342.756 168.217 373.812 176.983 404.206 185.563L406.779 172.473C406.779 172.473 333.015 145.609 291.459 137.44C257.168 130.699 208.561 153.706 192.049 164.775Z" fill="#53A7CF"/>
<path d="M300.978 160.998C286.349 161.118 273.326 171.486 270.393 186.405C269.17 192.626 269.879 198.776 272.09 204.246C275.941 213.769 284.366 221.224 295.197 223.353C306.522 225.58 317.616 221.423 324.775 213.388C328.398 209.324 331.017 204.272 332.143 198.543C335.213 182.923 326.151 167.737 311.504 162.719C310.159 162.257 308.772 161.874 307.338 161.592C305.203 161.173 303.074 160.981 300.978 160.998Z" fill="#1E487A"/>
<path d="M305.96 168.604C319.141 171.195 327.726 183.983 325.134 197.166C322.543 210.348 309.756 218.934 296.575 216.343C283.396 213.752 274.811 200.965 277.402 187.783C279.993 174.6 292.78 166.013 305.96 168.604Z" fill="#0F2235"/>
<path d="M315.123 169.516C315.8 169.924 316.678 169.707 317.088 169.03C317.495 168.353 317.279 167.473 316.602 167.063C315.926 166.656 315.045 166.872 314.636 167.551C314.228 168.228 314.445 169.106 315.123 169.516ZM322.128 175.638C322.624 176.254 323.526 176.35 324.141 175.855C324.757 175.358 324.854 174.457 324.357 173.841C323.861 173.227 322.961 173.129 322.345 173.626C321.729 174.121 321.632 175.024 322.128 175.638ZM326.63 183.785C326.886 184.532 327.701 184.931 328.448 184.673C329.197 184.416 329.594 183.602 329.338 182.854C329.08 182.107 328.265 181.708 327.518 181.964C326.77 182.223 326.372 183.037 326.63 183.785ZM328.071 192.973C328.055 193.764 328.683 194.418 329.473 194.433C330.265 194.449 330.917 193.821 330.933 193.03C330.95 192.24 330.321 191.586 329.531 191.571C328.74 191.554 328.087 192.183 328.071 192.973ZM326.284 202.109C326.001 202.847 326.369 203.675 327.108 203.959C327.845 204.242 328.675 203.873 328.957 203.134L328.957 203.135C329.24 202.396 328.872 201.569 328.133 201.285C327.396 201.002 326.568 201.371 326.284 202.109L326.284 202.109ZM321.485 210.079C320.966 210.675 321.027 211.579 321.623 212.099C322.22 212.619 323.123 212.557 323.643 211.961L323.643 211.961C324.164 211.366 324.101 210.461 323.505 209.941C322.91 209.421 322.006 209.483 321.485 210.079L321.485 210.079ZM314.247 215.929C313.554 216.312 313.305 217.183 313.687 217.875C314.071 218.567 314.942 218.817 315.634 218.433C316.325 218.05 316.576 217.179 316.192 216.487C315.809 215.795 314.937 215.545 314.245 215.928L314.247 215.929ZM305.453 218.96C304.672 219.083 304.138 219.816 304.263 220.598C304.385 221.378 305.118 221.911 305.9 221.788C306.681 221.664 307.213 220.931 307.09 220.15C306.966 219.369 306.233 218.836 305.451 218.959L305.453 218.96ZM296.151 218.788C295.374 218.637 294.624 219.144 294.471 219.92C294.32 220.696 294.828 221.448 295.604 221.599C296.381 221.75 297.131 221.242 297.283 220.467C297.434 219.691 296.926 218.939 296.151 218.788ZM287.461 215.46C286.782 215.053 285.903 215.272 285.495 215.95C285.089 216.628 285.308 217.507 285.986 217.914C286.663 218.322 287.542 218.102 287.95 217.424C288.358 216.747 288.138 215.867 287.461 215.46ZM280.442 209.351C279.944 208.737 279.043 208.642 278.429 209.139C277.814 209.637 277.719 210.538 278.216 211.153C278.714 211.767 279.615 211.862 280.229 211.365C280.844 210.867 280.939 209.966 280.442 209.351ZM275.924 201.214C275.665 200.467 274.851 200.071 274.103 200.329C273.355 200.588 272.96 201.403 273.218 202.15C273.476 202.898 274.293 203.294 275.039 203.036C275.786 202.777 276.182 201.962 275.924 201.214ZM274.465 192.029C274.478 191.237 273.849 190.585 273.059 190.572C272.267 190.557 271.614 191.187 271.601 191.978L271.601 191.977C271.587 192.768 272.215 193.42 273.007 193.435C273.798 193.449 274.45 192.819 274.465 192.029L274.465 192.029ZM276.232 182.889C276.513 182.15 276.143 181.323 275.404 181.041C274.665 180.76 273.838 181.13 273.557 181.869C273.275 182.608 273.646 183.435 274.384 183.717C275.123 183.999 275.949 183.628 276.232 182.889ZM281.014 174.91C281.533 174.313 281.469 173.408 280.872 172.889C280.275 172.372 279.37 172.434 278.853 173.031C278.334 173.628 278.397 174.533 278.995 175.052C279.592 175.57 280.495 175.507 281.014 174.91ZM288.241 169.045C288.933 168.661 289.182 167.788 288.796 167.098C288.411 166.407 287.54 166.159 286.849 166.543C286.158 166.928 285.91 167.801 286.296 168.491C286.68 169.181 287.551 169.43 288.241 169.045ZM297.03 165.997C297.81 165.87 298.342 165.137 298.217 164.356C298.091 163.576 297.356 163.043 296.577 163.168C295.797 163.294 295.264 164.029 295.389 164.809C295.515 165.589 296.248 166.121 297.03 165.997ZM306.331 166.148C307.108 166.297 307.859 165.789 308.008 165.013C308.157 164.238 307.649 163.485 306.873 163.336C306.096 163.187 305.345 163.695 305.196 164.473C305.047 165.248 305.555 165.999 306.331 166.148ZM306.438 166.169C307.215 166.322 307.966 165.817 308.119 165.04C308.271 164.265 307.767 163.512 306.991 163.359C306.215 163.207 305.462 163.713 305.31 164.488C305.157 165.265 305.663 166.017 306.438 166.169Z" fill="#0F2235"/>
<path d="M305.363 171.639C316.868 173.9 324.362 185.063 322.1 196.569C319.838 208.075 308.677 215.57 297.172 213.309C285.666 211.047 278.174 199.885 280.436 188.379C282.698 176.872 293.858 169.377 305.363 171.639Z" fill="#8DC8E7"/>
<path d="M302.996 173.352C312.401 175.201 318.527 184.326 316.677 193.732C314.828 203.138 305.704 209.264 296.299 207.415C286.894 205.567 280.77 196.443 282.619 187.037C284.468 177.63 293.591 171.503 302.996 173.352Z" fill="#BED6E9"/>
<path d="M301.336 174.03C302.059 174.021 302.804 174.057 303.463 174.353C304.123 174.648 304.687 175.253 304.746 175.972C304.821 176.876 304.088 177.68 303.253 178.031C302.419 178.383 301.488 178.401 300.588 178.501C297.537 178.838 294.609 180.213 292.4 182.345C291.693 183.027 291.052 183.789 290.238 184.339C289.425 184.889 288.376 185.205 287.452 184.873C283.071 183.295 289.68 178.174 291.2 177.179C294.197 175.213 297.746 174.071 301.336 174.03Z" fill="white"/>
<path d="M406.779 172.473L404.206 185.564C410.644 187.38 417.051 189.189 423.426 190.956L425.698 179.399L406.779 172.473Z" fill="#3B3643"/>
<path d="M396.885 222.806L391.357 250.925L411.51 251.571L416.785 224.737C410.145 224.164 403.512 223.516 396.885 222.806Z" fill="#1D191E"/>
<path d="M257.407 138.395C222.29 145.224 187.025 166.068 186.288 169.817C185.566 173.49 209.338 204.912 238.456 224.627C253.069 198.201 256.927 167.864 257.407 138.395Z" fill="#1E487A"/>
<path d="M210.499 184.43C202.011 180.374 193.975 175.525 186.291 170.153C186.755 175.048 210.056 205.399 238.456 224.627C243.071 216.282 246.608 207.544 249.312 198.569C235.971 194.841 222.81 190.313 210.499 184.43Z" fill="#203459"/>
<path d="M192.04 164.777C213.413 158.953 234.973 156.773 256.57 157.113C257.041 150.866 257.306 144.611 257.407 138.395C230.497 143.629 203.518 157.084 192.04 164.777Z" fill="#1D568E"/>
<path d="M467.501 207.566C464.149 206.645 460.78 205.799 457.425 204.896C454.165 204.018 451.006 202.832 447.787 201.82C445.828 201.205 443.889 200.528 441.971 199.792L441.687 201.235C443.301 201.86 444.931 202.443 446.574 202.989C453.29 205.221 460.507 206.507 467.468 207.732C467.574 207.751 467.603 207.595 467.501 207.566Z" fill="#6EB5E6"/>
<path d="M453.063 237.241C447.068 236.477 441.119 235.42 435.163 234.422L434.932 235.595C440.931 236.473 446.988 237.059 452.976 237.68C453.259 237.709 453.351 237.277 453.063 237.241Z" fill="#6EB5E6"/>
<path d="M457.13 228.494C457.556 228.574 457.683 227.928 457.26 227.835C451.525 226.571 445.779 225.362 440.091 223.903C439.187 223.672 438.278 223.439 437.368 223.207L437.031 224.92C437.959 225.065 438.885 225.209 439.806 225.351C445.608 226.249 451.364 227.399 457.13 228.494Z" fill="#6EB5E6"/>
<path d="M461.072 216.378C455.139 215.09 449.236 213.632 443.292 212.413C442.074 212.163 440.857 211.909 439.638 211.659L439.289 213.432C440.509 213.678 441.726 213.934 442.946 214.172C448.899 215.338 454.935 216.174 460.932 217.091C461.392 217.161 461.532 216.477 461.072 216.378Z" fill="#6EB5E6"/>
<path d="M447.98 219.483C444.945 218.83 441.91 218.177 438.876 217.525C438.751 217.498 438.626 217.47 438.501 217.443L438.217 218.885C438.283 218.9 438.347 218.913 438.413 218.928C441.505 219.607 444.597 220.285 447.689 220.965C448.638 221.173 448.93 219.687 447.98 219.483Z" fill="#6EB5E6"/>
<path d="M445.947 207.365L440.748 206.012L440.495 207.298C442.231 207.74 443.963 208.184 445.699 208.628C446.501 208.832 446.744 207.572 445.947 207.365Z" fill="#6EB5E6"/>
<path d="M445.711 230.999C442.533 230.555 439.369 230.019 436.223 229.379C436.202 229.374 436.18 229.369 436.157 229.364L435.875 230.801C439.061 231.369 442.261 231.836 445.474 232.206C446.252 232.296 446.501 231.109 445.711 230.999Z" fill="#6EB5E6"/>
<path d="M557.733 221.648C557.094 222.506 556.967 223.528 557.208 224.441C555.669 224.187 554.107 224.116 552.612 224.588C550.52 225.248 548.753 226.912 548.429 229.145C548.125 231.249 548.936 233.629 550.658 234.936C551.944 235.913 553.527 236.428 555.12 236.433C554.558 237.66 554.443 239.029 555.363 240.186C556.902 242.125 559.565 240.858 561.043 239.579C561.221 239.427 561.104 239.08 560.845 239.183C559.651 239.659 557.852 240.568 556.676 239.668C555.214 238.547 556.139 236.62 557.539 236.032C558.536 235.611 558.291 234.064 557.145 234.134C555.496 234.234 553.703 234.09 552.381 232.982C551.285 232.062 550.574 230.677 550.852 229.217C551.14 227.726 552.486 226.849 553.862 226.472C555.812 225.937 557.757 226.337 559.68 226.764C560.794 226.974 561.12 225.296 560.019 225.038C558.526 224.774 558.365 222.994 559.348 222.052C559.917 221.508 560.645 221.322 561.418 221.439C562.038 221.532 562.525 221.853 563.164 221.822C563.398 221.809 563.611 221.531 563.505 221.303C563.038 220.291 561.742 220.079 560.719 220.117C559.544 220.161 558.44 220.7 557.733 221.648Z" fill="#6EB5E6"/>
<path d="M561.231 266.877C560.592 267.735 560.465 268.757 560.706 269.67C559.167 269.416 557.605 269.345 556.11 269.817C554.018 270.477 552.251 272.141 551.927 274.374C551.623 276.478 552.434 278.858 554.156 280.165C555.442 281.142 557.025 281.657 558.618 281.662C558.056 282.889 557.941 284.258 558.861 285.415C560.4 287.354 563.063 286.087 564.541 284.808C564.719 284.656 564.602 284.309 564.343 284.412C563.149 284.888 561.35 285.797 560.174 284.897C558.712 283.776 559.637 281.849 561.037 281.261C562.034 280.84 561.789 279.293 560.643 279.363C558.994 279.463 557.201 279.319 555.879 278.211C554.783 277.291 554.072 275.906 554.35 274.446C554.638 272.955 555.984 272.078 557.36 271.701C559.31 271.166 561.255 271.566 563.178 271.993C564.292 272.203 564.618 270.525 563.517 270.267C562.024 270.003 561.863 268.223 562.846 267.281C563.415 266.737 564.143 266.551 564.916 266.668C565.536 266.761 566.023 267.082 566.662 267.051C566.896 267.038 567.109 266.76 567.003 266.532C566.536 265.52 565.24 265.308 564.217 265.346C563.042 265.39 561.938 265.929 561.231 266.877Z" fill="#6EB5E6"/>
<path d="M593.234 206.143C592.595 207.001 592.468 208.023 592.709 208.936C591.17 208.682 589.608 208.611 588.113 209.083C586.021 209.743 584.254 211.407 583.93 213.641C583.626 215.744 584.437 218.124 586.159 219.431C587.445 220.408 589.028 220.923 590.621 220.928C590.059 222.155 589.944 223.524 590.864 224.681C592.403 226.62 595.066 225.353 596.544 224.074C596.722 223.922 596.605 223.575 596.346 223.678C595.152 224.154 593.353 225.064 592.177 224.163C590.715 223.042 591.64 221.115 593.04 220.527C594.037 220.107 593.792 218.559 592.646 218.629C590.997 218.729 589.204 218.585 587.882 217.477C586.786 216.557 586.075 215.172 586.353 213.712C586.641 212.221 587.988 211.345 589.363 210.967C591.313 210.432 593.258 210.832 595.181 211.259C596.295 211.469 596.621 209.791 595.52 209.533C594.027 209.27 593.866 207.489 594.849 206.548C595.418 206.003 596.146 205.818 596.919 205.934C597.54 206.028 598.026 206.349 598.665 206.317C598.899 206.304 599.112 206.027 599.006 205.798C598.539 204.786 597.243 204.574 596.22 204.613C595.046 204.657 593.941 205.195 593.234 206.143Z" fill="#6EB5E6"/>
<path d="M515.695 214.098C514.742 214.174 513.77 214.585 513.56 215.62C513.316 216.827 514.063 217.846 515.068 218.512C514.849 218.607 514.638 218.716 514.444 218.86C513.744 219.371 513.213 220.247 513.354 221.137C513.497 222.033 514.253 222.625 515.049 222.95C516.088 223.375 517.225 223.537 518.343 223.49C518.712 223.475 518.652 222.947 518.301 222.933C517.408 222.895 516.519 222.7 515.699 222.339C515.149 222.099 514.453 221.722 514.359 221.061C514.276 220.473 514.761 219.928 515.255 219.685C515.918 219.359 516.701 219.357 517.423 219.336C518.136 219.313 518.215 218.177 517.499 218.072C516.833 217.975 516.225 217.717 515.723 217.268C515.39 216.971 514.849 216.396 514.959 215.895C515.069 215.398 516.019 215.458 516.389 215.45C516.774 215.442 517.154 215.462 517.536 215.512C517.937 215.567 518.327 215.702 518.721 215.55C519.145 215.386 519.185 214.913 518.907 214.603C518.553 214.204 517.856 214.178 517.356 214.128C516.806 214.071 516.247 214.054 515.695 214.098Z" fill="#6EB5E6"/>
<path d="M506.698 201.365C504.474 201.137 502.266 201.621 500.286 202.638C499.274 203.157 498.383 203.82 497.792 204.811C497.224 205.763 496.986 206.886 496.967 207.986C496.952 208.848 497.173 209.726 497.562 210.52C496.682 210.293 495.783 210.132 494.906 210.018C491.363 209.565 488.02 210.167 484.891 211.883C484.539 212.078 484.196 212.287 483.862 212.51C482.549 212.506 481.238 212.481 479.927 212.418C473.214 212.095 466.585 211.247 460.072 209.575C459.467 209.421 459.32 210.326 459.888 210.508C466.204 212.547 472.784 214.009 479.422 214.408C480.113 214.449 480.806 214.479 481.498 214.503C478.751 217.387 477.389 221.345 478.49 225.245C478.058 225.181 477.626 225.127 477.195 225.058C471.352 224.121 465.509 223.154 459.717 221.945C459.003 221.796 458.817 222.85 459.501 223.043C465.321 224.688 471.175 226.135 477.142 227.133C477.9 227.26 478.659 227.387 479.421 227.512C480.55 229.568 482.414 231.454 484.661 232.227L484.597 232.256C484.074 232.498 483.577 232.782 483.114 233.104C481.86 232.855 480.608 232.6 479.351 232.372C475.387 231.652 471.351 231.211 467.347 230.751C466.678 230.674 466.46 231.684 467.143 231.794C471.125 232.43 475.077 233.227 479.052 233.894C479.939 234.043 480.823 234.204 481.708 234.357C481.281 234.861 480.926 235.432 480.679 236.086C480.418 236.775 480.277 237.486 480.236 238.2C478.398 237.8 476.55 237.428 474.713 237.055C467.173 235.524 459.64 234.231 451.964 233.672C451.684 233.652 451.587 234.053 451.877 234.111C459.268 235.578 466.697 236.967 474.01 238.796C476.175 239.338 478.323 239.936 480.466 240.548C480.807 241.93 481.502 243.233 482.457 244.304C477.932 242.961 473.378 241.704 468.843 240.416C468.114 240.209 467.897 241.358 468.616 241.569C474.385 243.256 480.131 245.057 485.912 246.707C483.195 248.471 481.58 251.794 480.588 254.737C479.444 258.133 479.336 261.804 480.791 265.115C483.634 271.578 490.437 275.832 497.536 274.536C498.657 274.331 499.841 273.968 500.972 273.455C503.316 272.39 505.426 270.667 506.25 268.292C506.293 268.172 506.173 268.024 506.047 268.113C504.471 269.224 503.036 270.42 501.262 271.226C499.525 272.014 497.594 272.539 495.687 272.635C491.866 272.828 488.259 271.214 485.657 268.443C483.063 265.678 481.644 261.764 481.577 257.992C481.538 255.773 482.021 253.674 482.989 251.682C483.851 249.91 485.078 248.461 486.25 246.92C486.273 246.888 486.298 246.858 486.321 246.827C486.332 246.83 486.342 246.833 486.354 246.836C486.392 246.806 486.428 246.772 486.468 246.743C486.746 246.812 487.028 246.874 487.313 246.917C488.584 247.112 489.743 246.963 491.002 246.764C491.178 246.736 491.221 246.462 491.021 246.431C489.918 246.265 488.809 246.108 487.709 245.931C487.715 245.927 487.721 245.923 487.727 245.919C487.691 245.908 487.656 245.895 487.619 245.884C487.57 245.887 487.521 245.883 487.471 245.885C486.363 245.686 485.303 245.306 484.413 244.599C482.857 243.363 481.69 241.431 481.507 239.435C481.316 237.35 482.285 235.512 484.049 234.417C484.901 233.888 485.885 233.513 486.862 233.284C487.418 233.154 487.953 233.058 488.485 232.844C489.066 232.61 489.542 232.487 490.183 232.508C490.324 232.513 490.353 232.3 490.235 232.243C489.4 231.847 488.409 231.358 487.465 231.383C486.93 231.398 486.371 231.548 485.829 231.743C483.194 230.209 480.967 228.15 480.051 225.091C479.035 221.697 480.243 218.169 482.644 215.673C485.261 212.953 488.777 211.843 492.488 211.869C494.556 211.884 496.597 212.332 498.551 212.989C500.566 213.665 502.733 214.142 504.664 215.011C504.806 215.075 504.945 214.886 504.821 214.781C503.331 213.518 502.031 212.341 500.251 211.477C500.074 211.393 499.884 211.326 499.7 211.249C499.281 210.229 499.046 209.174 499.021 208.025C499.004 207.239 499.18 206.386 499.605 205.716C500.07 204.982 500.888 204.525 501.657 204.169C503.203 203.454 504.949 203.071 506.651 203.29C507.511 203.401 508.335 203.657 509.196 203.773C510.212 203.913 510.993 204.348 511.79 204.994L511.916 204.883C511.323 204.006 510.524 203.166 509.725 202.477C509.488 202.27 509.229 202.11 508.96 201.971C508.266 201.613 507.489 201.446 506.698 201.365Z" fill="#6EB5E6"/>
<path d="M443.045 194.325L424.209 186.974L412.999 243.996L433.217 244.323L443.045 194.325Z" fill="#181418"/>
<path d="M419.474 159.481L405.29 171.935C406.255 172.283 406.779 172.473 406.779 172.473L422.06 178.068L424.187 167.248L462.137 153.349C463.626 152.804 464.722 151.519 465.027 149.964C464.947 150.37 464.809 150.752 464.63 151.111L419.474 159.481Z" fill="#1A3256"/>
<path d="M389.432 250.842L398.094 268.24L436.722 293.079C436.752 293.48 436.735 293.886 436.656 294.291C436.961 292.735 436.434 291.133 435.262 290.065L405.396 262.835L407.635 251.447L391.357 250.925C391.357 250.925 390.683 250.898 389.432 250.842Z" fill="#1A3256"/>
<path d="M539.963 259.244C539.578 259.76 539.502 260.375 539.647 260.924C538.72 260.772 537.78 260.729 536.881 261.013C535.622 261.41 534.558 262.412 534.363 263.756C534.181 265.022 534.669 266.454 535.705 267.24C536.479 267.828 537.431 268.138 538.39 268.141C538.052 268.879 537.983 269.704 538.536 270.4C539.462 271.567 541.065 270.804 541.955 270.035C542.061 269.943 541.991 269.734 541.835 269.796C541.117 270.083 540.034 270.63 539.327 270.088C538.447 269.414 539.003 268.254 539.846 267.9C540.446 267.647 540.298 266.716 539.608 266.757C538.616 266.818 537.537 266.731 536.742 266.064C536.082 265.511 535.654 264.677 535.822 263.799C535.995 262.902 536.805 262.374 537.633 262.147C538.806 261.825 539.977 262.065 541.134 262.322C541.804 262.449 542.001 261.439 541.338 261.284C540.44 261.125 540.343 260.053 540.934 259.487C541.277 259.159 541.715 259.048 542.18 259.118C542.553 259.174 542.846 259.367 543.231 259.348C543.372 259.341 543.5 259.174 543.436 259.036C543.155 258.427 542.375 258.3 541.759 258.323C541.053 258.349 540.388 258.673 539.963 259.244Z" fill="#6EB5E6"/>
</g>
<path d="M596.646 187.288C595.662 188.61 595.466 190.183 595.838 191.589C593.467 191.198 591.061 191.088 588.759 191.816C585.537 192.833 582.815 195.396 582.316 198.835C581.848 202.075 583.097 205.74 585.75 207.753C587.73 209.258 590.167 210.052 592.622 210.059C591.756 211.948 591.58 214.057 592.995 215.839C595.366 218.826 599.467 216.874 601.744 214.905C602.018 214.671 601.837 214.136 601.439 214.294C599.6 215.027 596.829 216.428 595.019 215.041C592.767 213.315 594.191 210.347 596.347 209.441C597.883 208.794 597.506 206.41 595.74 206.518C593.2 206.672 590.439 206.45 588.404 204.743C586.715 203.327 585.62 201.194 586.048 198.946C586.492 196.649 588.566 195.299 590.684 194.717C593.687 193.894 596.683 194.509 599.644 195.167C601.36 195.491 601.863 192.906 600.167 192.51C597.867 192.103 597.619 189.36 599.133 187.911C600.009 187.072 601.131 186.786 602.322 186.966C603.277 187.11 604.026 187.604 605.011 187.555C605.372 187.536 605.699 187.108 605.536 186.756C604.816 185.197 602.821 184.872 601.244 184.931C599.436 184.998 597.734 185.828 596.646 187.288Z" fill="#6EB5E6"/>
<defs>
<clipPath id="clip0_66_344">
<rect width="313.311" height="407.752" fill="white" transform="translate(126.421 317.956) rotate(-78.8786)"/>
</clipPath>
</defs>
</svg>
