<svg width="283" height="158" viewBox="0 0 283 158" fill="none" xmlns="http://www.w3.org/2000/svg">
<path d="M282.378 61.6673C278.913 61.3984 275.444 61.2069 271.979 60.9565C268.611 60.7131 265.285 60.1481 261.933 59.765C259.892 59.5327 257.86 59.2364 255.837 58.8778L255.832 60.3483C257.536 60.6553 259.246 60.9186 260.963 61.1431C267.98 62.0603 275.31 61.9544 282.378 61.8357C282.485 61.8344 282.484 61.6761 282.378 61.6673Z" fill="#6EB5E6"/>
<path d="M273.832 93.542C267.801 93.929 261.759 94.0199 255.723 94.1707L255.719 95.366C261.774 95.0901 267.833 94.5165 273.83 93.9896C274.113 93.9644 274.122 93.5234 273.832 93.542Z" fill="#6EB5E6"/>
<path d="M277.738 71.5385C271.669 71.3999 265.596 71.088 259.528 71.019C258.285 71.0045 257.042 70.9855 255.798 70.9712L255.792 72.7781C257.037 72.789 258.28 72.8091 259.522 72.8119C265.589 72.8268 271.674 72.5029 277.736 72.265C278.201 72.2468 278.208 71.5484 277.738 71.5385Z" fill="#6EB5E6"/>
<path d="M265.473 77.0708C262.369 77.0055 259.265 76.9402 256.163 76.8757C256.035 76.8731 255.907 76.8693 255.779 76.8662L255.774 78.3361C255.841 78.3378 255.907 78.3389 255.974 78.3406C259.139 78.4209 262.303 78.5006 265.468 78.5809C266.439 78.6058 266.444 77.0908 265.473 77.0708Z" fill="#6EB5E6"/>
<path d="M261.178 65.559L255.816 65.2165L255.812 66.527C257.601 66.6322 259.385 66.7391 261.174 66.8459C262.001 66.8941 262 65.6105 261.178 65.559Z" fill="#6EB5E6"/>
<path d="M265.429 88.8078C262.225 88.9753 259.017 89.0491 255.807 89.0172C255.785 89.0171 255.763 89.0159 255.739 89.0158L255.735 90.4794C258.97 90.4336 262.201 90.2849 265.425 90.038C266.207 89.9787 266.226 88.7662 265.429 88.8078Z" fill="#6EB5E6"/>
<path d="M217.098 119.311L233.179 116.735L237.008 116.122L237.246 42.5693L233.421 41.9522L217.357 39.3583L217.098 119.311Z" fill="#29242C"/>
<path d="M217.357 39.3584L217.314 52.6993C223.98 53.2616 230.614 53.8222 237.208 54.3472L237.246 42.5694L217.357 39.3584Z" fill="#3B3643"/>
<path d="M217.191 90.6537L217.098 119.311L237.008 116.121L237.096 88.7742C230.468 89.471 223.832 90.0937 217.191 90.6537Z" fill="#1D191E"/>
<path d="M264.597 1.80604L208.631 16.4111L206.271 17.0251C204.599 17.461 203.186 18.5766 202.369 20.0984L193.91 35.8933C204.588 37.3867 212.578 38.6119 215.793 39.1125C216.806 39.2707 217.357 39.3584 217.357 39.3584L233.421 41.9523L233.457 30.9258L268.082 10.0797C269.44 9.26206 270.272 7.79252 270.277 6.20745C270.287 3.23269 267.476 1.05398 264.597 1.80604Z" fill="#1E487A"/>
<path d="M217.098 119.311C217.098 119.311 216.431 119.412 215.192 119.595C211.74 120.104 203.818 121.251 193.37 122.628L201.984 138.965C202.791 140.494 204.197 141.617 205.866 142.064L208.222 142.695L264.092 157.661C266.966 158.432 269.791 156.271 269.801 153.296C269.806 151.71 268.984 150.237 267.63 149.411L233.141 128.341L233.179 116.735L217.098 119.311Z" fill="#1E487A"/>
<path d="M215.192 119.595C216.431 119.412 217.098 119.311 217.098 119.311L217.357 39.358C217.357 39.358 216.806 39.2703 215.793 39.1121C212.578 38.6115 204.588 37.3863 193.91 35.8929C167.628 32.2182 125.089 26.9276 97.4847 26.8382C55.1316 26.701 0.382143 73.4755 0.365615 78.5793C0.34909 83.682 54.7944 130.81 97.1475 130.947C124.661 131.036 167.046 126.099 193.37 122.628C203.818 121.251 211.739 120.104 215.192 119.595Z" fill="#4397C8"/>
<path d="M204.406 20.2012C205.689 17.9078 218.336 14.6573 225.016 13.0567C229.773 11.9166 234.225 10.5902 239.011 9.59498C241.127 9.15544 242.54 10.2448 240.346 11.0025C234.659 12.9717 226.54 15.3408 219.988 17.3645C213.438 19.3866 206.829 22.9986 203.904 29.1981C203.202 30.6883 202.012 34.4829 199.684 34.1671C197.47 33.8669 197.681 31.1387 198.499 29.7213C201.458 24.5932 203.424 21.955 204.406 20.2012Z" fill="#1C629E"/>
<path d="M204.022 138.877C205.29 141.178 217.916 144.51 224.585 146.155C229.334 147.325 233.778 148.68 238.558 149.706C240.67 150.16 242.09 149.08 239.901 148.308C234.227 146.303 226.123 143.881 219.585 141.814C213.049 139.749 206.463 136.095 203.578 129.876C202.886 128.383 201.721 124.579 199.39 124.881C197.175 125.167 197.368 127.897 198.177 129.319C201.103 134.466 203.051 137.116 204.022 138.877Z" fill="#1C629E"/>
<path d="M117.453 110.483C106.415 110.447 96.7289 104.726 91.1415 96.1053C69.7302 95.4681 47.6134 93.7285 26.9096 88.3335C17.8123 85.9641 9.01088 82.7307 0.453822 78.9175C2.31087 85.3644 55.5439 130.812 97.1475 130.947C139.499 131.084 217.098 119.311 217.098 119.311L217.191 90.6537C200.635 92.0477 184.051 93.0669 167.455 93.8934C159.842 94.2727 152.225 94.6965 144.604 95.087C139.099 104.335 128.995 110.52 117.453 110.483Z" fill="#397AB1"/>
<path d="M5.06571 72.536C38.5697 56.0687 74.5641 49.6748 111.3 48.1632C113.355 47.7487 115.481 47.5333 117.657 47.5403C119.119 47.545 120.554 47.6575 121.961 47.8558C153.689 47.3252 185.844 50.0402 217.314 52.6992L217.357 39.3582C217.357 39.3582 139.836 26.9756 97.4847 26.8384C62.5371 26.7253 19.1778 58.536 5.06571 72.536Z" fill="#53A7CF"/>
<path d="M111.3 48.1629C96.9599 51.0559 86.1398 63.7066 86.0906 78.9102C86.07 85.2505 87.9322 91.1544 91.1415 96.1052C96.7289 104.726 106.415 110.447 117.453 110.483C128.995 110.52 139.099 104.335 144.604 95.0869C147.39 90.4099 149.003 84.952 149.021 79.114C149.073 63.1945 137.294 50.004 121.961 47.8555C120.554 47.6572 119.119 47.5447 117.657 47.54C115.481 47.533 113.355 47.7484 111.3 48.1629Z" fill="#1E487A"/>
<path d="M117.634 54.686C131.067 54.7295 141.922 65.6564 141.879 79.0914C141.835 92.5261 130.91 103.382 117.477 103.338C104.045 103.295 93.19 92.3686 93.2335 78.9338C93.277 65.4989 104.202 54.6425 117.634 54.686Z" fill="#0F2235"/>
<path d="M126.804 53.8429C127.546 54.1148 128.367 53.7351 128.641 52.9931C128.913 52.2511 128.533 51.4279 127.791 51.1543C127.049 50.8823 126.226 51.2621 125.953 52.0057C125.681 52.7477 126.06 53.5693 126.804 53.8429ZM134.843 58.5248C135.447 59.0355 136.35 58.9592 136.861 58.3561C137.372 57.7514 137.295 56.8483 136.691 56.3376C136.088 55.8286 135.185 55.9032 134.674 56.5079C134.164 57.111 134.24 58.0158 134.843 58.5248ZM140.809 65.6695C141.202 66.3546 142.077 66.5916 142.763 66.1963C143.449 65.8027 143.685 64.9275 143.291 64.2423C142.896 63.5571 142.021 63.3202 141.336 63.7138C140.65 64.1091 140.414 64.9843 140.809 65.6695ZM143.967 74.4181C144.101 75.1972 144.842 75.72 145.621 75.5852C146.401 75.451 146.922 74.71 146.788 73.9308C146.654 73.1516 145.913 72.6291 145.135 72.7637C144.354 72.8979 143.833 73.6389 143.967 74.4181ZM143.945 83.7266C143.808 84.5054 144.326 85.2484 145.105 85.3864C145.883 85.5245 146.628 85.0051 146.765 84.2263L146.765 84.2266C146.902 83.448 146.384 82.7051 145.605 82.5667C144.827 82.4287 144.084 82.9478 143.945 83.7263L143.945 83.7266ZM140.746 92.4622C140.349 93.1462 140.581 94.0224 141.265 94.4196C141.949 94.8168 142.824 94.5848 143.222 93.9009L143.222 93.901C143.62 93.2176 143.387 92.3411 142.703 91.9437C142.02 91.5463 141.144 91.7784 140.746 92.4619L140.746 92.4622ZM134.749 99.5791C134.141 100.087 134.062 100.99 134.569 101.596C135.077 102.202 135.979 102.283 136.586 101.775C137.192 101.268 137.272 100.365 136.764 99.7579C136.257 99.1516 135.353 99.0715 134.747 99.5791L134.749 99.5791ZM126.69 104.223C125.946 104.493 125.561 105.314 125.831 106.057C126.1 106.801 126.921 107.185 127.665 106.915C128.408 106.646 128.791 105.825 128.523 105.081C128.252 104.338 127.432 103.954 126.688 104.223L126.69 104.223ZM117.524 105.819C116.732 105.818 116.092 106.459 116.089 107.249C116.088 108.04 116.73 108.682 117.52 108.683C118.311 108.684 118.952 108.043 118.954 107.253C118.955 106.462 118.314 105.82 117.524 105.819ZM108.36 104.2C107.617 103.929 106.795 104.311 106.523 105.054C106.253 105.797 106.634 106.619 107.378 106.89C108.12 107.161 108.941 106.779 109.213 106.036C109.485 105.294 109.102 104.472 108.36 104.2ZM100.309 99.5339C99.7048 99.025 98.8017 99.1029 98.2928 99.7076C97.7839 100.313 97.8619 101.216 98.4665 101.725C99.0712 102.234 99.9742 102.156 100.483 101.551C100.992 100.946 100.914 100.043 100.309 99.5339ZM94.3299 92.402C93.9346 91.7175 93.0596 91.4833 92.3745 91.8786C91.6894 92.2741 91.4559 93.1501 91.8511 93.8344C92.2464 94.5192 93.1231 94.7537 93.8065 94.3582C94.4916 93.9627 94.7252 93.0869 94.3299 92.402ZM91.1548 83.6599C91.0175 82.8807 90.2765 82.3597 89.4979 82.4961C88.7177 82.6324 88.1965 83.3741 88.3338 84.1531L88.3338 84.1528C88.4694 84.9319 89.2104 85.453 89.9907 85.317C90.7692 85.1809 91.2904 84.4393 91.1548 83.6601L91.1548 83.6599ZM91.1563 74.3515C91.2919 73.5727 90.7722 72.8305 89.9928 72.6941C89.2134 72.5576 88.4724 73.0784 88.3368 73.8572C88.1995 74.6362 88.721 75.3781 89.4986 75.5145C90.278 75.6513 91.019 75.1305 91.1563 74.3515ZM94.3375 65.6099C94.7338 64.9256 94.4992 64.0489 93.815 63.6525C93.1308 63.2578 92.2542 63.4908 91.8596 64.1751C91.4633 64.8594 91.6962 65.7361 92.3821 66.1325C93.0663 66.5272 93.9412 66.2942 94.3375 65.6099ZM100.321 58.4804C100.927 57.9719 101.006 57.0676 100.496 56.4629C99.9877 55.8582 99.0852 55.7795 98.4789 56.288C97.8743 56.7964 97.7956 57.7007 98.3057 58.3054C98.814 58.9101 99.7165 58.9888 100.321 58.4804ZM108.372 53.8202C109.114 53.5481 109.497 52.7273 109.227 51.9836C108.954 51.2415 108.132 50.8581 107.39 51.1286C106.648 51.4008 106.265 52.2233 106.535 52.9653C106.807 53.7074 107.628 54.0907 108.372 53.8202ZM117.532 52.2042C118.324 52.2034 118.964 51.562 118.964 50.7719C118.963 49.9819 118.322 49.3397 117.532 49.3406C116.74 49.3414 116.1 49.9827 116.1 50.7745C116.101 51.5645 116.743 52.205 117.532 52.2042ZM117.642 52.2045C118.434 52.2071 119.076 51.5691 119.078 50.7774C119.081 49.9874 118.443 49.3435 117.651 49.3409C116.861 49.3384 116.218 49.9781 116.215 50.7681C116.212 51.5598 116.852 52.202 117.642 52.2045Z" fill="#0F2235"/>
<path d="M117.624 57.7786C129.35 57.8166 138.825 67.3544 138.787 79.0813C138.749 90.8074 129.212 100.284 117.486 100.246C105.761 100.208 96.2877 90.6698 96.3257 78.9438C96.3636 67.2169 105.898 57.7406 117.624 57.7786Z" fill="#8DC8E7"/>
<path d="M115.625 59.9096C125.21 59.9406 132.955 67.7377 132.924 77.3243C132.893 86.9102 125.097 94.656 115.512 94.6249C105.927 94.5939 98.1832 86.7978 98.2143 77.2119C98.2453 67.6253 106.04 59.8785 115.625 59.9096Z" fill="#BED6E9"/>
<path d="M114.124 60.8901C114.832 60.7442 115.57 60.6388 116.274 60.8045C116.977 60.9684 117.646 61.4557 117.841 62.1504C118.085 63.0237 117.518 63.9517 116.765 64.4546C116.013 64.9592 115.103 65.1533 114.238 65.4217C111.306 66.332 108.692 68.2367 106.928 70.7498C106.362 71.5532 105.878 72.4232 105.183 73.1176C104.489 73.8121 103.519 74.321 102.549 74.17C97.9486 73.4518 103.466 67.1707 104.769 65.9049C107.339 63.4067 110.607 61.6115 114.124 60.8901Z" fill="white"/>
<path d="M64.2323 34.237C31.0483 47.6036 0.377965 74.7597 0.365594 78.5797C0.353472 82.3229 29.6547 108.665 61.9844 122.498C71.3188 93.7799 69.3511 63.2619 64.2323 34.237Z" fill="#1E487A"/>
<path d="M26.9097 88.3339C17.8056 85.9618 8.99574 82.7256 0.431956 78.9086C1.81628 83.6273 30.452 109.007 61.9844 122.498C64.9326 113.428 66.7478 104.179 67.6993 94.8534C53.8939 93.7236 40.1131 91.7745 26.9097 88.3339Z" fill="#203459"/>
<path d="M5.05731 72.5405C24.9377 62.7675 45.6926 56.5364 66.9615 52.7731C66.2389 46.55 65.3124 40.3582 64.2324 34.2367C38.8043 44.4802 14.8675 62.809 5.05731 72.5405Z" fill="#1D568E"/>
<path d="M257.11 53.9332L237.221 50.2893L237.032 108.402L256.945 104.888L257.11 53.9332Z" fill="#181418"/>
<path d="M227.356 24.1934L215.793 39.1125C216.806 39.2707 217.357 39.3584 217.357 39.3584L233.421 41.9523L233.457 30.9258L268.082 10.0797C269.44 9.26206 270.272 7.79252 270.277 6.20745C270.276 6.62182 270.212 7.02251 270.105 7.4096L227.356 24.1934Z" fill="#1A3256"/>
<path d="M215.192 119.596L226.998 135.034L269.636 152.094C269.741 152.482 269.802 152.884 269.801 153.296C269.806 151.71 268.983 150.238 267.63 149.411L233.141 128.342L233.179 116.736L217.098 119.312C217.098 119.312 216.431 119.413 215.192 119.596Z" fill="#1A3256"/>
</svg>
