<svg width="79" height="122" viewBox="0 0 79 122" fill="none" xmlns="http://www.w3.org/2000/svg">
<path d="M55.6136 7.99668C54.131 11.7517 55.3585 16.368 58.4027 18.9853C56.078 17.5847 52.4826 18.5099 51.3801 21.0682C50.5714 22.9462 51.3285 25.1938 52.8206 26.5487C52.078 26.3087 51.2839 26.271 50.4904 26.3193C48.2587 26.4569 46.1589 27.2945 44.3711 28.6202C43.4574 29.2968 42.6866 30.0957 42.2646 31.1698C41.8591 32.2023 41.8073 33.3484 41.9679 34.4369C42.0936 35.2901 42.4541 36.1201 42.968 36.8402C42.0622 36.7604 41.1493 36.7477 40.2655 36.7781C36.696 36.9086 33.4952 38.0463 30.6882 40.2493C30.3722 40.4992 30.0677 40.7612 29.7746 41.0354C29.0115 41.7469 28.3419 42.5422 27.7668 43.3875C25.5264 46.6806 24.8278 50.8067 26.5492 54.4757C26.845 55.1097 27.2051 55.7322 27.6519 56.3316C27.7085 56.4097 27.7754 56.4833 27.837 56.5606C29.2855 58.4054 31.4319 59.963 33.7755 60.3588L33.717 60.3985C33.2404 60.7223 32.7963 61.0834 32.3918 61.4762C31.9351 61.9177 31.5311 62.4034 31.208 62.9414C30.8689 63.5086 30.6124 64.1294 30.4752 64.8155C30.3302 65.5376 30.3064 66.2623 30.3825 66.9733C30.4664 67.7593 30.6789 68.5258 30.9921 69.2528C31.5537 70.5607 32.4515 71.7328 33.5682 72.6334C34.1569 73.1084 34.8035 73.5118 35.4969 73.8142C36.1254 74.0899 36.7929 74.2498 37.4727 74.3371C37.4346 74.3696 37.4047 74.4091 37.3683 74.4424C34.9748 76.6248 33.9233 80.1667 33.4237 83.2316C32.8475 86.7687 33.3398 90.4089 35.3149 93.4385C39.172 99.3516 46.5778 102.441 53.3702 100.006C54.4435 99.6208 55.5521 99.07 56.5842 98.3793C55.0924 100.83 54.3643 103.822 55.5641 106.363C56.9983 109.393 62.0345 110.343 63.6374 107.399C62.0082 109.935 61.0527 113.087 61.8522 115.993C62.6533 118.899 65.5998 121.295 68.5679 120.77C70.7568 120.38 72.4774 118.55 73.317 116.49C74.1583 114.431 74.2664 112.154 74.3039 109.93C74.4238 102.679 77.5496 37.6112 76.9823 22.0609C76.8285 17.8735 77.0646 13.6102 75.3496 9.78636C73.6328 5.96412 70.3003 2.6319 66.1616 1.97658C61.8403 1.29041 57.2204 3.93027 55.6136 7.99668Z" fill="#D4F1FC"/>
<path d="M50.5261 26.4791C48.2943 26.6167 46.1945 27.4543 44.4068 28.78C43.4931 29.4566 42.7223 30.2555 42.3003 31.3296C41.8947 32.3621 41.843 33.5082 42.0036 34.5967C42.1292 35.4499 42.4898 36.2799 43.0037 37C42.0979 36.9202 41.185 36.9075 40.3011 36.9379C36.7316 37.0684 33.5308 38.2061 30.7238 40.4091C30.4079 40.659 30.1033 40.9211 29.8102 41.1953C28.5148 41.4052 27.2166 41.5948 25.9128 41.7455C19.2368 42.5211 12.5584 42.7642 5.85988 42.1757C5.23809 42.1214 5.24047 43.0383 5.83094 43.1253C12.3944 44.1091 19.1248 44.4794 25.7393 43.7912C26.4273 43.7194 27.1156 43.6359 27.8024 43.5473C25.5621 46.8404 24.8634 50.9666 26.5849 54.6356C26.1482 54.6427 25.713 54.6596 25.2765 54.6616C19.3596 54.6894 13.4368 54.6868 7.52497 54.438C6.7963 54.4074 6.78392 55.4769 7.49088 55.5565C13.501 56.2314 19.5121 56.705 25.5626 56.7181C26.3309 56.7196 27.1009 56.7216 27.8727 56.7204C29.3212 58.5652 31.4676 60.1228 33.8112 60.5186L33.7527 60.5583C33.276 60.8822 32.832 61.2433 32.4274 61.6361C31.1497 61.5953 29.8723 61.5476 28.5956 61.5269C24.5671 61.4622 20.5129 61.6853 16.4881 61.883C15.8147 61.9167 15.7648 62.9484 16.4557 62.9452C20.4886 62.9247 24.5181 63.0673 28.5484 63.0777C29.4481 63.0802 30.3458 63.0949 31.2437 63.1012C30.9045 63.6684 30.648 64.2892 30.5109 64.9753C30.3658 65.6974 30.3421 66.4222 30.4181 67.1331C28.5389 67.0379 26.6554 66.9714 24.782 66.9027C17.0935 66.6206 9.45009 66.5722 1.78556 67.2717C1.50677 67.2967 1.47567 67.7088 1.77193 67.7189C9.30327 67.9616 16.859 68.1216 24.3723 68.7355C26.5961 68.9172 28.8129 69.1576 31.0277 69.4126C31.5894 70.7205 32.4872 71.8927 33.6038 72.7932C28.9205 72.2058 24.2228 71.7076 19.5378 71.1755C18.7855 71.0899 18.7583 72.2588 19.502 72.3499C25.4684 73.0746 31.4313 73.9158 37.404 74.6022C35.0105 76.7847 33.9589 80.3265 33.4594 83.3914C32.8831 86.9286 33.3754 90.5687 35.3506 93.5983C39.2076 99.5115 46.6134 102.601 53.4058 100.165C54.4791 99.7807 55.5878 99.2298 56.6198 98.5392C58.7597 97.1065 60.5609 95.0626 60.9869 92.5852C61.0093 92.4594 60.8665 92.3332 60.7571 92.4413C59.383 93.7943 58.162 95.2089 56.5434 96.2929C54.9575 97.3536 53.1376 98.1853 51.2717 98.5913C47.5332 99.4038 43.7119 98.3993 40.6936 96.0892C37.6837 93.7839 35.646 90.1528 34.9655 86.4423C34.5652 84.2597 34.6999 82.1094 35.3308 79.9863C35.8921 78.0981 36.8669 76.4683 37.7717 74.7569C37.7896 74.722 37.8091 74.6881 37.8271 74.6532C37.8388 74.6546 37.8489 74.6558 37.8606 74.6571C37.8937 74.6216 37.9236 74.582 37.9584 74.547C38.2441 74.5696 38.5318 74.5844 38.82 74.581C40.1062 74.5658 41.2252 74.2298 42.4354 73.8284C42.604 73.7725 42.6023 73.4954 42.4 73.4975C41.2841 73.5132 40.1644 73.5386 39.0505 73.543C39.0557 73.5385 39.0609 73.5334 39.0661 73.5285C39.0292 73.5232 38.9923 73.517 38.9537 73.5114C38.9062 73.5228 38.8572 73.5267 38.8081 73.5365C37.683 73.5206 36.5753 73.3188 35.5812 72.7662C33.8447 71.7999 32.3788 70.0841 31.8735 68.1447C31.3455 66.1184 32.0021 64.1469 33.5636 62.7799C34.3185 62.1182 35.2277 61.5885 36.1543 61.2038C36.6817 60.9848 37.1944 60.8028 37.6837 60.5047C38.2194 60.1791 38.6686 59.9801 39.3047 59.8965C39.4451 59.8784 39.4382 59.6637 39.3129 59.627C38.4243 59.3724 37.3675 59.0506 36.4403 59.2293C35.9149 59.3315 35.3869 59.5702 34.8846 59.8508C32.0346 58.7673 29.5024 57.0985 28.1003 54.2296C26.5443 51.0461 27.1619 47.3687 29.1243 44.5145C31.263 41.4047 34.5508 39.7371 38.2165 39.1579C40.2601 38.8359 42.3462 38.945 44.3817 39.275C46.4794 39.6136 48.6949 39.7317 50.7425 40.2744C50.8929 40.3144 50.9987 40.1053 50.8597 40.0219C49.1834 39.0186 47.7093 38.0687 45.8123 37.507C45.6235 37.4523 45.4258 37.4177 45.2317 37.3713C44.652 36.4335 44.2479 35.4302 44.0363 34.3014C43.8913 33.5285 43.9263 32.6583 44.2367 31.9279C44.5762 31.1277 45.3084 30.5433 46.0087 30.0675C47.4179 29.1094 49.0776 28.4472 50.7931 28.3865C51.6602 28.3557 52.5142 28.4744 53.3828 28.4486C54.4081 28.4209 55.2499 28.7229 56.1409 29.2304L56.2477 29.1005C55.5196 28.3317 54.5939 27.6328 53.694 27.0829C53.4261 26.9181 53.1449 26.8016 52.8562 26.7086C52.1137 26.4685 51.3195 26.4308 50.5261 26.4791Z" fill="#6EB5E6"/>
</svg>
